<?xml version="1.0" encoding="utf-8"?>
<!-- Generator: Adobe Illustrator 19.2.1, SVG Export Plug-In . SVG Version: 6.00 Build 0)  -->
<svg version="1.1" id="layer" xmlns="http://www.w3.org/2000/svg" xmlns:xlink="http://www.w3.org/1999/xlink" x="0px" y="0px"
	 viewBox="0 0 652 652" style="enable-background:new 0 0 652 652;" xml:space="preserve">
<style type="text/css">
	.st0{fill:#F47E42;}
</style>
<g>
	<path d="M350.6,302.4c0-6.7-1.1-11.1-3.9-13.9c-2.8-2.2-7.2-3.3-14.4-3.3h-43.3c-7.2,0-11.7,1.1-14.4,3.3
		c-2.8,2.2-3.9,6.7-3.9,13.9v38.3c0,6.7,1.1,11.1,3.9,13.9c2.8,2.2,7.2,3.3,14.4,3.3h43.3c7.2,0,11.7-1.1,14.4-3.3
		c2.8-2.2,3.9-6.7,3.9-13.9v-9.4h-18.3L325,344h-26.7L285,321.3l13.3-22.8H325l7.2,12.8h18.3V302.4z"/>
	<path d="M265.6,331.3v9.4c0,6.7-1.1,11.1-3.9,13.9c-2.8,2.2-7.2,3.3-14.4,3.3h-43.3c-7.2,0-11.7-1.1-14.4-3.3
		c-2.8-2.2-3.9-6.7-3.9-13.9v-38.3c0-6.7,1.1-11.1,3.9-13.9c2.8-2.2,7.2-3.3,14.4-3.3h43.3c7.2,0,11.7,1.1,14.4,3.3
		c2.8,2.2,3.9,6.7,3.9,13.9v8.3C265.6,310.7,265.6,331.3,265.6,331.3z M200,321.3l13.3,22.8H240l13.3-22.8L240,298.5h-26.7
		L200,321.3z"/>
	<path d="M435,331.3v9.4c0,6.7-1.1,11.1-3.9,13.9c-2.8,2.2-7.2,3.3-14.4,3.3h-43.3c-7.2,0-11.7-1.1-14.4-3.3
		c-2.8-2.2-3.9-6.7-3.9-13.9v-38.3c0-6.7,1.1-11.1,3.9-13.9c3.3-2.2,7.8-3.3,15-3.3h43.3c7.2,0,11.7,1.1,14.4,3.3
		c2.8,2.2,3.9,6.7,3.9,13.9v8.3v20.6H435z M370,321.3l13.3,22.8H410l13.3-22.8L410,298.5h-26.7L370,321.3z"/>
	<polygon class="st0" points="296.7,321.3 303.9,334 318.9,334 326.1,321.3 318.9,308.5 303.9,308.5 	"/>
	<path d="M20,357.9v-72.8h60c12.8,0,18.3,6.1,18.3,14.4v16.7c0,8.3-5,14.4-18.3,14.4H40v26.7H20V357.9z M72.2,301.3H40v13.9h32.2
		c2.2,0,3.9,0,4.4-0.6c1.1-0.6,1.7-1.7,1.7-3.3v-5.6c0-1.7-0.6-2.8-1.7-3.3C76.1,301.8,74.4,301.3,72.2,301.3z"/>
	<path d="M102.2,357.9v-72.8h60c12.8,0,18.3,6.1,18.3,14.4v16.7c0,8.3-5,14.4-18.3,14.4H160l31.7,26.7h-29.4l-28.3-26.7h-11.7v26.7
		h-20V357.9z M154.4,301.3h-32.2v13.9h32.2c2.2,0,3.9,0,4.4-0.6c1.1-0.6,1.7-1.7,1.7-3.3v-5.6c0-1.7-0.6-2.8-1.7-3.3
		C158.3,301.8,156.7,301.3,154.4,301.3z"/>
	<path d="M441.1,357.9v-72.8h60c12.8,0,18.3,6.1,18.3,14.4v16.7c0,8.3-5,14.4-18.3,14.4h-2.2l31.7,26.7h-29.4l-28.3-26.7h-11.7v26.7
		h-20V357.9z M492.8,301.3h-32.2v13.9h32.2c2.2,0,3.9,0,4.4-0.6c1.1-0.6,1.7-1.7,1.7-3.3v-5.6c0-1.7-0.6-2.8-1.7-3.3
		C496.7,301.8,495,301.3,492.8,301.3z"/>
	<path d="M524.4,357.9v-72.8h74.4v16.1H545v11.1h31.7v16.1H545v12.2h55v17.2H524.4z"/>
	<path d="M620,292.9c0,4.4-3.3,7.8-8.3,7.8c-4.4,0-8.3-3.3-8.3-7.8s3.9-7.8,8.3-7.8C616.7,285.2,620,288.5,620,292.9z M605.6,292.9
		c0,3.3,2.8,6.1,6.1,6.1c3.3,0,6.1-2.8,6.1-6.1s-2.8-6.7-6.1-6.7C608.3,286.8,605.6,289.6,605.6,292.9z M610.6,297.4h-1.7V289
		c0.6,0,1.7,0,2.8,0c1.7,0,2.2,0,2.8,0.6c0.6,0.6,0.6,1.1,0.6,1.7c0,1.1-0.6,1.7-1.7,1.7l0,0c0.6,0.6,1.1,1.1,1.7,1.7
		c0,1.1,0.6,1.7,0.6,2.2h-2.2c0-0.6-0.6-1.1-0.6-1.7c0-1.1-0.6-1.1-1.7-1.1H610v3.3H610.6z M610.6,292.9h1.1c1.1,0,1.7-0.6,1.7-1.1
		c0-0.6-0.6-1.1-1.7-1.1c-0.6,0-0.6,0-1.1,0V292.9z"/>
</g>
</svg>
